<svg version="1.1" xmlns="http://www.w3.org/2000/svg" xmlns:xlink="http://www.w3.org/1999/xlink" width="375.000000pt" height="336.000000pt" viewBox="0,0,256,229.375"><g fill="#2176ff" fill-rule="nonzero" stroke="none" stroke-width="1" stroke-linecap="butt" stroke-linejoin="miter" stroke-miterlimit="10" stroke-dasharray="" stroke-dashoffset="0" font-family="none" font-weight="none" font-size="none" text-anchor="none" style="mix-blend-mode: normal"><g transform="translate(-3.03867,1.53496) scale(0.68267,0.68267)"><g transform="translate(0,336) scale(0.1,-0.1)"><path d="M3437,3132c-15,-16 -17,-49 -17,-260c0,-205 2,-243 16,-256c8,-9 22,-16 29,-16c7,0 21,7 29,16c14,13 16,51 16,258c0,223 -2,244 -18,259c-24,22 -35,21 -55,-1z"></path><path d="M3415,2447c-74,-29 -115,-86 -115,-158c0,-55 29,-103 83,-138l37,-24v-411c0,-394 -1,-411 -21,-453c-50,-103 -181,-151 -284,-104c-53,24 -111,90 -125,143c-12,44 -7,106 11,140c10,19 12,19 38,-6c32,-31 66,-34 81,-6c12,23 12,24 -42,98c-47,64 -73,68 -112,17c-53,-69 -69,-121 -64,-205c5,-92 32,-146 104,-208c159,-141 428,-64 489,140c12,43 15,123 15,454v403l38,21c53,30 75,65 80,126c4,44 0,61 -21,97c-40,67 -127,101 -192,74zM3522,2340c35,-36 33,-71 -8,-107c-32,-29 -66,-29 -100,0c-36,32 -36,83 1,115c36,31 71,28 107,-8z"></path><path d="M1525,2383c-191,-10 -410,-72 -560,-160c-40,-23 -75,-32 -175,-46c-280,-38 -457,-107 -546,-211c-52,-60 -46,-91 25,-120c67,-29 164,-99 202,-147l30,-38l-11,-83c-11,-93 -2,-193 25,-273c63,-186 257,-383 552,-558c57,-35 62,-40 73,-90c39,-161 117,-289 228,-371c78,-57 77,-57 180,220c11,30 53,93 104,156c116,143 122,152 109,176c-10,18 -21,20 -138,20c-183,0 -251,29 -339,145c-54,72 -81,129 -94,199c-11,57 -24,78 -50,78c-32,0 -43,-26 -36,-86c17,-142 151,-325 282,-384c51,-22 132,-40 183,-40c21,0 40,-3 44,-6c3,-3 -22,-40 -55,-82c-62,-79 -75,-102 -123,-229c-15,-40 -33,-73 -40,-73c-15,0 -65,55 -100,110c-19,29 -95,251 -95,275c0,2 -42,29 -94,60c-274,163 -451,338 -508,502c-34,99 -32,248 5,355c74,213 260,407 493,514c267,121 570,138 932,49c126,-30 292,-92 376,-139c100,-56 100,-56 -1,-123c-114,-75 -116,-89 -18,-156c39,-26 72,-52 74,-58c11,-33 -183,-122 -349,-161c-72,-16 -141,-21 -455,-28c-307,-7 -387,-12 -470,-28c-121,-24 -199,-53 -253,-92c-85,-62 -121,-144 -73,-170c25,-13 48,-4 56,21c19,59 102,115 211,142c117,30 204,37 509,41c171,2 346,9 390,16c193,28 375,96 493,185c51,39 62,52 62,76c0,25 -10,35 -70,74c-38,25 -70,49 -70,54c0,5 36,32 79,60c44,29 82,59 85,67c13,35 -43,87 -165,153c-245,132 -631,218 -914,204zM760,2084c0,-3 -23,-32 -52,-63c-56,-61 -114,-146 -148,-217l-22,-44l-50,45c-27,24 -77,61 -109,81c-50,30 -58,38 -48,51c35,41 173,98 324,133c90,21 105,23 105,14z"></path><path d="M1693,2158c-126,-117 -125,-284 3,-427c47,-53 86,-66 98,-35c11,29 6,42 -39,95c-44,51 -75,121 -75,166c0,38 26,89 69,136c45,48 52,81 22,97c-27,14 -26,15 -78,-32z"></path><path d="M2091,2114c-28,-35 -26,-59 5,-91c46,-46 113,-14 114,54c0,61 -80,86 -119,37z"></path></g></g></g></svg>